HIERARCHY
ROOT Hips
{
 OFFSET 0.000000 0.000000 0.000000
 CHANNELS 6 Xposition Yposition Zposition Yrotation Xrotation Zrotation
 JOINT Chest
 {
  OFFSET 0.000000 9.118891 -0.003343
  CHANNELS 3 Yrotation Xrotation Zrotation
  JOINT Chest2
  {
   OFFSET 0.000000 9.974827 0.006072
   CHANNELS 3 Yrotation Xrotation Zrotation
   JOINT Chest3
   {
    OFFSET 0.000000 9.012192 0.000000
    CHANNELS 3 Yrotation Xrotation Zrotation
    JOINT Chest4
    {
     OFFSET 0.000000 9.012192 0.000000
     CHANNELS 3 Yrotation Xrotation Zrotation
     JOINT Neck
     {
      OFFSET 0.000000 12.705587 0.000000
      CHANNELS 3 Yrotation Xrotation Zrotation
      JOINT Head
      {
       OFFSET 0.000000 8.391369 0.014439
       CHANNELS 3 Yrotation Xrotation Zrotation
       End Site
       {
        OFFSET 0.000000 16.040357 0.007542
       }
      }
     }
     JOINT RightCollar
     {
      OFFSET -2.776401 7.093167 0.000000
      CHANNELS 3 Yrotation Xrotation Zrotation
      JOINT RightShoulder
      {
       OFFSET -13.069743 0.000000 0.000000
       CHANNELS 3 Yrotation Xrotation Zrotation
       JOINT RightElbow
       {
        OFFSET 0.000000 -28.086887 0.000000
        CHANNELS 3 Yrotation Xrotation Zrotation
        JOINT RightWrist
        {
         OFFSET 0.000000 -22.938724 0.000000
         CHANNELS 3 Yrotation Xrotation Zrotation
         End Site
         {
          OFFSET 0.000000 -17.079533 0.000000
         }
        }
       }
      }
     }
     JOINT LeftCollar
     {
      OFFSET 2.776401 7.093167 0.000000
      CHANNELS 3 Yrotation Xrotation Zrotation
      JOINT LeftShoulder
      {
       OFFSET 13.069743 0.000000 0.000000
       CHANNELS 3 Yrotation Xrotation Zrotation
       JOINT LeftElbow
       {
        OFFSET 0.000000 -28.086887 0.000000
        CHANNELS 3 Yrotation Xrotation Zrotation
        JOINT LeftWrist
        {
         OFFSET 0.000000 -22.938724 0.000000
         CHANNELS 3 Yrotation Xrotation Zrotation
         End Site
         {
          OFFSET 0.000000 -17.079533 0.000000
         }
        }
       }
      }
     }
    }
   }
  }
 }
 JOINT RightHip
 {
  OFFSET -7.432142 0.016379 0.001671
  CHANNELS 3 Yrotation Xrotation Zrotation
  JOINT RightKnee
  {
   OFFSET 0.000000 -38.693556 -0.001581
   CHANNELS 3 Yrotation Xrotation Zrotation
   JOINT RightAnkle
   {
    OFFSET 0.000000 -37.632671 -0.002674
    CHANNELS 3 Yrotation Xrotation Zrotation
    JOINT RightToe
    {
     OFFSET 0.000000 -6.431303 14.619699
     CHANNELS 3 Yrotation Xrotation Zrotation
     End Site
     {
      OFFSET 0.000000 -1.406368 6.076152
     }
    }
   }
  }
 }
 JOINT LeftHip
 {
  OFFSET 7.432142 0.016379 0.001671
  CHANNELS 3 Yrotation Xrotation Zrotation
  JOINT LeftKnee
  {
   OFFSET 0.000000 -38.693556 -0.001581
   CHANNELS 3 Yrotation Xrotation Zrotation
   JOINT LeftAnkle
   {
    OFFSET 0.000000 -37.632671 -0.002674
    CHANNELS 3 Yrotation Xrotation Zrotation
    JOINT LeftToe
    {
     OFFSET 0.000000 -6.431303 14.619699
     CHANNELS 3 Yrotation Xrotation Zrotation
     End Site
     {
      OFFSET 0.000000 -1.406368 6.076152
     }
    }
   }
  }
 }
}
MOTION
Frames: 9
Frame Time: 0.008333
39.738660 50.603662 261.624852 -62.714555 -38.440338 -0.155982 2.343518 10.832782 -3.458124 1.154343 4.786658 -0.915822 1.154343 4.786658 -0.915822 0.872443 3.588290 -0.695529 -2.018709 23.046138 3.781731 -3.065544 -1.140359 4.569462 -6.451894 11.294102 17.813173 26.664468 -17.316051 -35.550285 55.457970 -49.703083 -19.407124 14.793784 -1.829231 -2.084855 -6.590296 11.440992 -5.697027 -7.934162 -30.022773 15.231098 -71.110252 -40.732520 27.082823 -17.800427 0.814523 -18.261618 6.182829 -44.174935 -19.161993 65.122726 83.906389 61.670401 -3.415771 -0.954338 8.041935 0.747916 -1.377040 0.336038 12.078132 -43.208024 5.620848 40.181147 80.753888 34.199651 -2.853544 -1.081087 5.722913 0.658798 1.261905 0.291544
39.736464 50.604560 261.623187 -62.709822 -38.444349 -0.155675 2.340086 10.832062 -3.457168 1.154957 4.785698 -0.915284 1.154957 4.785698 -0.915284 0.872898 3.587570 -0.695129 -2.011386 23.064087 3.756124 -3.051554 -1.120733 4.539831 -6.452638 11.298127 17.809246 26.655766 -17.314381 -35.550679 55.458931 -49.712620 -19.408724 14.792812 -1.826467 -2.081858 -6.590640 11.450414 -5.694946 -7.943049 -30.027213 15.226216 -71.093303 -40.724138 27.070610 -17.807661 0.818470 -18.264123 6.175813 -44.169840 -19.159688 65.150911 83.907245 61.695562 -3.421004 -0.963766 8.043455 0.745021 -1.372547 0.332264 12.068676 -43.203570 5.624455 40.183418 80.754947 34.199731 -2.856142 -1.075932 5.717006 0.660931 1.257179 0.293299
39.733491 50.605469 261.620912 -62.716164 -38.450879 -0.152441 2.341667 10.836047 -3.455511 1.155524 4.785213 -0.916186 1.155524 4.785213 -0.916186 0.873329 3.587204 -0.695808 -1.998967 23.079081 3.731944 -3.032334 -1.104764 4.510501 -6.451081 11.298424 17.811846 26.644428 -17.312048 -35.542035 55.464096 -49.719535 -19.410194 14.800759 -1.824090 -2.080902 -6.587468 11.456368 -5.686056 -7.941939 -30.035866 15.217458 -71.090289 -40.720972 27.064401 -17.809721 0.822006 -18.270725 6.170451 -44.165493 -19.143373 65.161446 83.915848 61.699355 -3.432663 -0.969355 8.040134 0.749595 -1.370208 0.334268 12.052753 -43.194937 5.640445 40.186848 80.758814 34.192061 -2.847576 -1.080222 5.717407 0.654213 1.257045 0.289694
39.732934 50.604949 261.618146 -62.719244 -38.448607 -0.147068 2.344208 10.828260 -3.455806 1.156813 4.784742 -0.915867 1.156813 4.784742 -0.915867 0.874292 3.586849 -0.695579 -1.991225 23.098290 3.706327 -3.017901 -1.083620 4.480788 -6.460174 11.298484 17.810674 26.637057 -17.306064 -35.535472 55.470072 -49.724328 -19.414913 14.801499 -1.826021 -2.079373 -6.592544 11.469091 -5.682132 -7.937306 -30.048722 15.209628 -71.082395 -40.717576 27.055513 -17.811897 0.821760 -18.269560 6.170928 -44.174876 -19.142563 65.221463 83.915562 61.757036 -3.440286 -0.961863 8.035150 0.753617 -1.377174 0.334325 12.050712 -43.197658 5.642421 40.174298 80.760965 34.173742 -2.842604 -1.075720 5.718722 0.651980 1.253249 0.288183
39.732769 50.604830 261.615585 -62.716175 -38.447566 -0.140633 2.338826 10.826926 -3.463451 1.157977 4.785697 -0.916958 1.157977 4.785697 -0.916958 0.875175 3.587561 -0.696408 -1.981174 23.117107 3.686861 -3.002425 -1.062671 4.457269 -6.464456 11.290323 17.817517 26.635293 -17.294064 -35.526447 55.480898 -49.729021 -19.433893 14.805425 -1.828282 -2.072571 -6.590110 11.476099 -5.671179 -7.930729 -30.061148 15.202610 -71.090639 -40.719865 27.046340 -17.809846 0.826472 -18.268400 6.167564 -44.177912 -19.146529 65.217380 83.920801 61.748896 -3.437412 -0.966907 8.032159 0.752961 -1.373210 0.333465 12.039885 -43.195200 5.641850 40.179237 80.754097 34.170747 -2.848714 -1.070018 5.713605 0.656612 1.253113 0.289131
39.731189 50.604852 261.611912 -62.722390 -38.454044 -0.135534 2.342201 10.830643 -3.464650 1.159461 4.786039 -0.917568 1.159461 4.786039 -0.917568 0.876292 3.587815 -0.696877 -1.973244 23.136314 3.664943 -2.988678 -1.041293 4.431578 -6.469470 11.287249 17.819309 26.627004 -17.290747 -35.515799 55.486748 -49.733513 -19.441199 14.808617 -1.833533 -2.070244 -6.593438 11.482501 -5.661514 -7.925094 -30.070498 15.193278 -71.090465 -40.716577 27.046160 -17.814834 0.833006 -18.271795 6.165538 -44.175190 -19.140351 65.218939 83.926752 61.748822 -3.431305 -0.967860 8.027300 0.752016 -1.373916 0.332818 12.021037 -43.188924 5.662526 40.136442 80.761905 34.111394 -2.837520 -1.063233 5.711796 0.655562 1.247550 0.290293
39.730316 50.604684 261.608271 -62.718542 -38.456879 -0.135425 2.342477 10.831267 -3.464113 1.161200 4.786721 -0.917690 1.161200 4.786721 -0.917690 0.877598 3.588324 -0.696983 -1.966796 23.157445 3.641602 -2.976223 -1.017616 4.404716 -6.479354 11.284598 17.821106 26.631945 -17.284262 -35.508328 55.481084 -49.730856 -19.449923 14.812287 -1.841462 -2.062441 -6.596925 11.486597 -5.649837 -7.910023 -30.070188 15.183079 -71.102297 -40.721927 27.054569 -17.819886 0.835796 -18.279290 6.156528 -44.174049 -19.135188 65.250969 83.924399 61.777837 -3.437156 -0.973243 8.023018 0.755854 -1.370902 0.333103 12.003560 -43.186088 5.674778 40.180055 80.755713 34.145089 -2.853229 -1.055799 5.707001 0.658684 1.245337 0.291995
39.727675 50.604050 261.604208 -62.723028 -38.468060 -0.132506 2.349719 10.837238 -3.458519 1.163134 4.786541 -0.917016 1.163134 4.786541 -0.917016 0.879041 3.588187 -0.696493 -1.959103 23.177360 3.616579 -2.962003 -0.995528 4.375694 -6.491880 11.273504 17.821075 26.620414 -17.268733 -35.499198 55.493793 -49.732063 -19.466123 14.811134 -1.847492 -2.057210 -6.609098 11.491975 -5.643264 -7.896291 -30.074558 15.169499 -71.110834 -40.721103 27.058386 -17.817687 0.835212 -18.277806 6.147934 -44.168037 -19.127283 65.293179 83.926117 61.815217 -3.426258 -0.976828 8.025823 0.748408 -1.371750 0.326231 11.986622 -43.179769 5.694316 40.197463 80.763758 34.152503 -2.853263 -1.047326 5.703443 0.660324 1.236731 0.292327
39.727288 50.602092 261.599101 -62.731316 -38.463689 -0.125507 2.357400 10.830437 -3.456889 1.164749 4.787150 -0.917153 1.164749 4.787150 -0.917153 0.880254 3.588641 -0.696610 -1.946263 23.195141 3.597335 -2.943541 -0.975871 4.351747 -6.508543 11.267185 17.825004 26.631434 -17.255989 -35.490276 55.497499 -49.724863 -19.478744 14.810310 -1.851611 -2.061727 -6.609616 11.493635 -5.629447 -7.894257 -30.072766 15.159745 -71.112560 -40.722178 27.068301 -17.816317 0.832177 -18.280900 6.147355 -44.178086 -19.117334 65.291414 83.929286 61.803263 -3.419574 -0.976483 8.031952 0.743572 -1.371195 0.322400 11.980837 -43.182511 5.703663 40.225240 80.756703 34.171198 -2.864725 -1.047330 5.698811 0.665313 1.241762 0.294205
